<svg id="Layer_1" data-name="Layer 1" xmlns="http://www.w3.org/2000/svg" viewBox="0 0 335.96 578.58"><path d="M129.66,710.24V360.79h19.57V710.24Zm9.42-276.56V414.93h38.08a14.74,14.74,0,0,0,11.51-4.88q4.38-4.87,4.38-12.73,0-8.11-4.34-12.94a14.76,14.76,0,0,0-11.55-4.84H139.08V360.79h37.51a39,39,0,0,1,19.24,4.54,32.42,32.42,0,0,1,12.78,12.74,42.47,42.47,0,0,1,0,38.41,32.1,32.1,0,0,1-12.82,12.7,39.39,39.39,0,0,1-19.2,4.5Z" transform="translate(-129.66 -131.65)" style="fill:#fff"/><path d="M253.49,481.1q-14.58,0-21.91-6.47t-7.33-19.82q0-12.69,7.38-19t22.11-6.26h22.77l1.14,15.23H253.82c-3.88,0-6.78.82-8.72,2.46s-2.91,4.15-2.91,7.53q0,5.32,3.77,7.9t11.38,2.58q9.26,0,13.84-2t4.59-6.39L277.49,469a13.8,13.8,0,0,1-5,6.84,24.56,24.56,0,0,1-8.47,4A41.08,41.08,0,0,1,253.49,481.1Zm22.28-1.23V426q0-7.12-4.22-11.05T259.64,411a31.66,31.66,0,0,0-9.67,1.52,28,28,0,0,0-8.52,4.38l-13-11a32.92,32.92,0,0,1,13.11-9.05,48.12,48.12,0,0,1,18-3.24q16.38,0,25.35,8.27t9,23.34v54.63Z" transform="translate(-129.66 -131.65)" style="fill:#fff"/><path d="M317.62,479.87v-85H338v85ZM365,416.73a11.91,11.91,0,0,0-4.79-3.24,18.64,18.64,0,0,0-6.68-1.1q-7.37,0-11.42,4.38T338,428.93l-1.72-19.25a30.73,30.73,0,0,1,9.62-11.79A21.91,21.91,0,0,1,359,393.63a28.69,28.69,0,0,1,10.08,1.68,22.33,22.33,0,0,1,7.86,4.95Z" transform="translate(-129.66 -131.65)" style="fill:#fff"/><path d="M389.2,481.1V131.65h19.58V481.1ZM399,470.7l-1-22.28,41.69-53.56h21.7Zm44.56,9.17L418,433.35l14.66-11.14,33,57.66Z" transform="translate(-129.66 -131.65)" style="fill:#fff"/><polygon points="19.57 578.58 279.12 578.58 279.12 403.86 259.55 403.86 259.55 559.18 19.57 559.18 19.57 578.58" style="fill:#fff"/><polygon points="259.55 0 0 0 0 174.72 19.57 174.72 19.57 19.4 259.55 19.4 259.55 0" style="fill:#fff"/><path d="M173.74,681.64V628.71h8.7v52.93Zm22.39,0v-22.9a7.18,7.18,0,0,0-1.82-5.26,7,7,0,0,0-5.17-1.84,6.77,6.77,0,0,0-4.95,1.71,6.46,6.46,0,0,0-1.75,4.84l-.76-7.82a13.66,13.66,0,0,1,4.25-5.23,10.46,10.46,0,0,1,6.19-1.83c4,0,7.19,1.34,9.39,4s3.32,6.47,3.32,11.37v22.94Z" transform="translate(-129.66 -131.65)" style="fill:#fff"/><path d="M231.22,682.18q-8.06,0-12.49-4.4t-4.44-12.52V661q0-8.44,4.26-13.07t12-4.62q7.32,0,11.32,5.37t4,15.12v2.48H220.22v-6.37h17.59l0-.41a10.81,10.81,0,0,0-2.22-6.13,6.19,6.19,0,0,0-5-2.2,7.64,7.64,0,0,0-6.06,2.46c-1.44,1.63-2.17,4-2.17,7v4.8a8.08,8.08,0,0,0,8.89,8.92,11.49,11.49,0,0,0,4.24-.82,12.81,12.81,0,0,0,3.77-2.27l5.67,5.31a20.94,20.94,0,0,1-6.46,4.17A18.9,18.9,0,0,1,231.22,682.18Z" transform="translate(-129.66 -131.65)" style="fill:#fff"/><path d="M255.35,681.64V643.85h9.06v37.79Zm21-28.07a5.37,5.37,0,0,0-2.13-1.44,8.48,8.48,0,0,0-3-.49,6.56,6.56,0,0,0-5.07,2,7.63,7.63,0,0,0-1.81,5.41l-.76-8.56a13.67,13.67,0,0,1,4.28-5.24,9.74,9.74,0,0,1,5.8-1.89,12.91,12.91,0,0,1,4.48.74,10.05,10.05,0,0,1,3.49,2.2Z" transform="translate(-129.66 -131.65)" style="fill:#fff"/><path d="M302.27,682.18q-8,0-12.48-4.4c-3-2.94-4.44-7.11-4.44-12.52V661q0-8.44,4.25-13.07t12-4.62q7.31,0,11.32,5.37t4,15.12v2.48H291.28v-6.37h17.58l0-.41a10.81,10.81,0,0,0-2.22-6.13,6.17,6.17,0,0,0-5-2.2,7.64,7.64,0,0,0-6.06,2.46c-1.45,1.63-2.17,4-2.17,7v4.8a8.08,8.08,0,0,0,8.88,8.92,11.45,11.45,0,0,0,4.24-.82,12.68,12.68,0,0,0,3.77-2.27l5.68,5.31a21.06,21.06,0,0,1-6.46,4.17A18.92,18.92,0,0,1,302.27,682.18Z" transform="translate(-129.66 -131.65)" style="fill:#fff"/><path d="M323.49,681.64v-8.89h8.88v8.89Z" transform="translate(-129.66 -131.65)" style="fill:#fff"/><rect x="24.22" y="477.09" width="228.67" height="9.79" style="fill:#fff"/><rect x="24.73" y="36.35" width="228.67" height="9.79" style="fill:#fff"/></svg>